<?xml version="1.0" encoding="UTF-8"?>
<svg id="Layer_2" data-name="Layer 2" xmlns="http://www.w3.org/2000/svg" viewBox="0 0 515.22 135.6">
  <defs>
    <style>
      .cls-1 {
        fill: #fff;
      }
    </style>
  </defs>
  <g id="Layer_1-2" data-name="Layer 1">
    <g>
      <path class="cls-1" d="M16.4,33.25C10.93,22.43,5.47,11.61,0,.79h32.18c-5.26,10.82-10.53,21.64-15.79,32.46Z"/>
      <path class="cls-1" d="M116.89,16.63c0,9.12-7.51,16.63-16.63,16.63h-28.23c-.59.12-2.09.52-3.37,1.85-1.32,1.37-1.67,2.96-1.77,3.76-.02.16-.03.29-.04.38v35.64c-.33,15.52-.65,31.04-.98,46.56.41,5.55-1.58,10.23-5.04,11.82-3.46,1.59-7.31-.4-9.15-1.38-4.15-2.21-9.26-6.84-13.72-21.2-2.39-7.69-5.15-19.93-4.36-35.81V15.95c0-4.79,2.22-9.05,5.69-11.82C42.22,1.57,46.04,0,50.23,0h50.04C109.44,0,116.89,7.44,116.89,16.63Z"/>
      <rect class="cls-1" x="124.25" y="0" width="94.85" height="33.25" rx="16.63" ry="16.63"/>
      <rect class="cls-1" x="124.25" y="50.31" width="94.85" height="33.25" rx="16.63" ry="16.63"/>
      <rect class="cls-1" x="124.25" y="101.91" width="94.85" height="33.25" rx="16.63" ry="16.63"/>
      <rect class="cls-1" x="223.5" y="12.57" width="68.3" height="33.25" rx="16.63" ry="16.63" transform="translate(96.11 -173.64) rotate(45)"/>
      <rect class="cls-1" x="300.73" y="89.8" width="68.3" height="33.25" rx="16.63" ry="16.63" transform="translate(173.34 -205.63) rotate(45)"/>
      <rect class="cls-1" x="208.66" y="50.17" width="174.64" height="33.25" rx="16.57" ry="16.57" transform="translate(552.5 -95.27) rotate(135)"/>
      <path class="cls-1" d="M512.41,109.54l-53.48-98.99c-2.74-5.07-7.78-8.14-13.14-8.64-.13-.01-.27-.01-.4-.02-.38-.03-.77-.05-1.15-.05-.38,0-.76.03-1.14.05-.14,0-.28,0-.42.02-5.36.5-10.4,3.57-13.14,8.64l-54.31,100.53c-4.35,8.05-1.32,18.19,6.73,22.53,8.05,4.35,18.19,1.32,22.53-6.73l39.75-73.58,26.49,49.04h-34c-8.99,0-16.34,7.35-16.34,16.34v.58c0,8.99,7.35,16.34,16.34,16.34h62.17c8.99,0,16.34-7.35,16.34-16.34v-.58c0-3.38-1.04-6.53-2.82-9.14Z"/>
    </g>
  </g>
</svg>